<?xml version="1.0" standalone="no"?>
<!DOCTYPE svg PUBLIC "-//W3C//DTD SVG 20010904//EN"
 "http://www.w3.org/TR/2001/REC-SVG-20010904/DTD/svg10.dtd">
<svg version="1.0" xmlns="http://www.w3.org/2000/svg"
 width="260.000000pt" height="260.000000pt" viewBox="0 0 260.000000 260.000000"
 preserveAspectRatio="xMidYMid meet">
<metadata>
Created by potrace 1.14, written by Peter Selinger 2001-2017
</metadata>
<g transform="translate(0.000000,260.000000) scale(0.100000,-0.100000)"
fill="#000000" stroke="none">
<path d="M228 2218 c-43 -68 -132 -293 -124 -313 4 -12 277 -170 304 -177 8
-2 20 18 32 52 11 30 34 83 51 118 17 35 28 66 24 70 -4 4 -64 67 -133 140
-69 72 -129 132 -133 132 -4 0 -13 -10 -21 -22z"/>
<path d="M2194 2063 c-71 -74 -130 -141 -132 -148 -2 -8 8 -35 21 -62 14 -26
35 -76 47 -110 12 -35 27 -63 33 -63 5 0 73 36 149 80 77 44 144 80 148 80 19
0 15 30 -12 105 -33 92 -102 240 -115 248 -5 3 -67 -55 -139 -130z"/>
<path d="M1205 2172 c-16 -1 -37 -6 -45 -9 -8 -3 -28 -7 -45 -9 -46 -6 -115
-35 -166 -68 -90 -61 -289 -242 -289 -265 0 -6 -3 -11 -7 -11 -8 0 -47 -86
-49 -105 0 -5 -8 -28 -17 -49 -10 -22 -15 -41 -12 -44 3 -3 0 -10 -5 -17 -14
-17 -23 -78 -25 -170 -1 -44 -7 -92 -13 -107 -47 -109 -47 -114 -19 -152 13
-17 22 -40 20 -51 -2 -11 -5 -33 -7 -50 -6 -36 -13 -69 -22 -97 -19 -60 -5
-110 41 -144 14 -10 25 -22 25 -27 0 -4 10 -18 23 -30 41 -40 50 -69 42 -138
-5 -35 -9 -74 -10 -86 -2 -11 -6 -31 -10 -43 -10 -30 8 -19 77 46 51 49 78 58
78 27 0 -18 32 -64 77 -113 18 -19 33 -37 33 -41 0 -4 6 -9 14 -12 9 -4 25 10
43 36 15 23 38 53 51 67 12 14 25 33 28 43 3 9 19 24 35 32 16 9 29 20 29 25
0 6 18 28 41 49 29 29 46 38 62 34 37 -8 197 -12 197 -5 0 4 18 7 39 7 31 0
44 -7 61 -28 25 -32 77 -84 88 -89 4 -1 23 -25 42 -53 19 -27 37 -52 40 -55 3
-3 16 -20 29 -38 l23 -33 54 58 c29 32 63 77 75 100 25 49 21 50 103 -29 47
-45 76 -63 60 -36 -4 6 -9 23 -11 37 -1 14 -5 46 -9 71 -11 88 -8 115 17 141
47 49 100 111 110 131 10 19 8 89 -5 118 -3 8 -7 29 -9 45 -2 17 -6 36 -10 41
-10 17 1 73 18 90 17 17 20 75 5 90 -5 5 -11 18 -13 29 -2 11 -8 29 -14 40 -6
12 -10 75 -9 155 1 74 -2 140 -5 145 -4 6 -9 24 -12 42 -3 17 -9 38 -13 45 -5
7 -9 15 -10 18 -2 16 -28 60 -35 60 -4 0 -10 8 -13 18 -7 21 -166 191 -166
177 0 -5 -12 2 -27 16 -80 73 -199 132 -318 159 -49 12 -200 19 -260 12z"/>
<path d="M20 1491 c-10 -19 -13 -334 -3 -369 3 -12 8 -20 12 -18 3 2 28 7 55
10 27 4 53 9 57 12 4 2 28 6 53 8 25 2 48 6 53 9 4 3 30 8 58 12 27 3 51 8 53
10 4 4 4 276 0 280 -2 1 -45 10 -96 19 -50 9 -124 23 -162 30 -65 13 -71 12
-80 -3z"/>
<path d="M2510 1456 c-5 -4 -35 -10 -113 -22 -21 -3 -44 -7 -50 -8 -7 -2 -30
-6 -52 -10 -93 -17 -83 1 -83 -156 1 -139 1 -140 24 -145 13 -3 36 -8 52 -11
15 -3 41 -8 57 -11 17 -2 68 -11 114 -19 54 -10 87 -12 93 -6 11 11 17 282 8
347 -4 30 -10 41 -25 43 -12 2 -23 1 -25 -2z"/>
<path d="M375 869 c-22 -12 -60 -33 -85 -47 -59 -35 -139 -80 -167 -94 -13 -6
-23 -17 -23 -23 0 -37 119 -317 140 -330 7 -4 37 20 72 56 34 35 94 98 134
140 l74 77 -34 73 c-18 41 -40 92 -47 114 -18 56 -20 57 -64 34z"/>
<path d="M2130 778 c-12 -35 -33 -85 -47 -111 -13 -27 -23 -55 -21 -62 3 -16
257 -285 268 -285 8 0 94 188 125 271 9 26 15 55 13 64 -3 16 -249 165 -297
180 -15 4 -22 -6 -41 -57z"/>
</g>
</svg>
