<?xml version="1.0" standalone="no"?>
<!DOCTYPE svg PUBLIC "-//W3C//DTD SVG 20010904//EN"
 "http://www.w3.org/TR/2001/REC-SVG-20010904/DTD/svg10.dtd">
<svg version="1.0" xmlns="http://www.w3.org/2000/svg"
 width="512.000000pt" height="512.000000pt" viewBox="0 0 512.000000 512.000000"
 preserveAspectRatio="xMidYMid meet">
<metadata>
Created by potrace 1.11, written by Peter Selinger 2001-2013
</metadata>
<g transform="translate(0.000000,512.000000) scale(0.100000,-0.100000)"
fill="#000000" stroke="none">
<path d="M808 4958 c-50 -39 -264 -407 -368 -633 -100 -217 -104 -236 -60
-260 27 -15 29 -16 370 -168 129 -57 255 -114 280 -125 82 -37 315 -139 332
-145 22 -8 42 11 61 58 46 120 168 349 250 470 23 33 40 68 39 78 0 11 -15 31
-33 46 -17 14 -40 33 -51 43 -10 9 -38 31 -60 50 -23 18 -82 67 -132 108 -50
41 -98 80 -106 87 -16 12 -158 131 -200 167 -14 11 -62 50 -105 86 -44 35 -82
67 -85 70 -18 18 -100 80 -107 80 -5 0 -16 -6 -25 -12z"/>
<path d="M4250 4887 c-14 -12 -43 -35 -64 -52 -21 -16 -44 -35 -50 -40 -6 -6
-60 -51 -121 -100 -60 -49 -115 -94 -121 -100 -6 -5 -28 -23 -48 -40 -21 -16
-46 -37 -56 -45 -70 -59 -122 -101 -242 -200 -94 -76 -138 -118 -138 -132 0
-11 30 -68 67 -126 71 -113 191 -344 220 -425 28 -77 28 -77 338 64 22 10 123
54 225 99 102 45 214 95 250 112 36 16 108 48 160 71 74 33 96 47 98 64 9 62
-272 617 -394 780 -13 17 -24 36 -24 41 0 14 -45 52 -61 52 -8 0 -25 -11 -39
-23z"/>
<path d="M2436 4121 c-3 -5 -15 -7 -27 -4 -11 3 -30 1 -42 -5 -12 -6 -42 -15
-67 -22 -25 -6 -49 -12 -55 -14 -5 -2 -20 -7 -32 -11 -13 -4 -23 -11 -23 -16
0 -5 -3 -8 -7 -7 -13 5 -102 -56 -103 -69 0 -7 -9 -13 -20 -13 -10 0 -23 -6
-27 -14 -4 -8 -53 -63 -108 -122 -55 -59 -114 -123 -132 -142 -18 -19 -35 -43
-38 -53 -4 -10 -10 -19 -15 -19 -7 0 -34 -39 -66 -97 -7 -12 -10 -24 -6 -27 3
-3 1 -6 -5 -6 -6 0 -16 -20 -22 -44 -6 -25 -15 -47 -20 -51 -6 -3 -13 -27 -17
-53 -3 -26 -9 -51 -12 -57 -7 -11 -6 -8 -28 -100 -19 -83 -19 -86 -27 -105
-11 -29 -16 -106 -17 -249 0 -90 -5 -149 -11 -158 -6 -7 -9 -13 -6 -13 3 0 -6
-30 -21 -67 -30 -77 -38 -197 -14 -212 23 -14 39 -56 36 -92 -2 -32 -21 -155
-28 -189 -2 -8 -6 -23 -11 -33 -4 -9 -5 -26 -2 -37 3 -11 1 -23 -4 -26 -26
-16 0 -144 38 -186 9 -10 21 -26 27 -36 38 -63 59 -92 67 -92 5 0 9 -6 9 -14
0 -8 6 -21 14 -28 7 -8 19 -30 26 -50 13 -36 13 -50 -13 -323 -2 -22 -7 -48
-12 -58 -14 -33 5 -31 40 3 19 19 35 38 35 43 0 5 20 30 46 57 25 26 51 56 59
66 13 18 14 18 15 2 0 -10 5 -18 10 -18 6 0 10 -6 10 -14 0 -8 5 -27 12 -43 6
-15 11 -31 10 -35 -1 -5 2 -8 8 -8 5 0 10 -6 10 -14 0 -8 18 -37 40 -65 22
-28 40 -55 40 -60 0 -6 6 -14 14 -18 8 -4 15 -11 15 -16 0 -4 8 -19 17 -33
l17 -25 27 48 c66 118 84 148 89 153 3 3 20 31 36 64 17 32 33 57 36 55 8 -5
39 27 39 40 0 6 4 11 9 11 5 0 13 9 16 21 4 12 21 38 39 58 17 20 36 45 42 56
9 16 20 19 55 16 24 -2 52 -7 61 -12 22 -12 201 -12 213 0 6 4 31 11 57 14 44
6 48 5 54 -17 3 -13 21 -39 40 -57 19 -18 34 -38 34 -44 0 -7 19 -32 43 -56
37 -37 78 -103 191 -304 11 -19 23 -32 28 -29 15 10 148 203 158 231 9 24 17
44 25 63 2 3 6 15 10 28 7 22 11 20 71 -45 35 -37 64 -71 64 -76 0 -11 52 -67
62 -67 5 0 7 12 4 27 -4 16 -7 45 -8 66 -1 21 -5 40 -10 43 -5 3 -9 24 -9 47
0 23 -2 80 -5 127 l-5 85 47 70 c26 39 49 72 53 75 3 3 13 19 21 35 8 17 24
40 36 53 37 41 47 87 39 178 -4 46 -10 84 -14 84 -4 0 -8 12 -8 28 -1 15 -6
54 -12 87 -17 94 -14 138 11 170 27 34 36 126 17 170 -7 17 -14 35 -14 40 -1
6 -7 23 -13 38 -7 16 -12 34 -12 41 0 7 -3 16 -7 20 -5 4 -9 116 -10 249 -1
222 -15 384 -33 397 -4 3 -13 23 -20 45 -16 50 -90 195 -100 195 -4 0 -13 14
-20 30 -7 17 -16 30 -21 30 -4 0 -10 9 -14 20 -3 11 -21 34 -38 53 -18 18 -45
52 -61 75 -16 23 -33 42 -39 42 -6 0 -29 19 -51 43 -23 23 -59 56 -81 72 -22
16 -44 35 -48 42 -4 7 -14 13 -21 13 -8 0 -16 7 -20 15 -3 8 -12 15 -21 15 -8
0 -15 4 -15 9 0 5 -21 19 -47 31 -27 12 -57 26 -67 32 -10 5 -62 21 -115 34
-75 18 -123 24 -218 24 -67 0 -124 -4 -127 -9z"/>
<path d="M93 3058 c-40 -50 -52 -699 -18 -954 9 -66 10 -67 98 -59 45 3 84 8
87 10 4 2 31 7 61 10 30 3 65 8 79 10 14 3 45 7 70 10 25 3 56 7 70 10 14 2
45 7 70 10 25 3 55 7 67 9 12 3 48 7 80 11 32 3 67 8 78 10 11 3 36 6 55 9 49
6 191 27 215 31 11 2 32 4 48 4 27 1 72 35 63 49 -17 28 -25 390 -12 547 9
107 9 96 7 117 0 9 -9 19 -18 22 -18 5 -32 8 -123 21 -25 4 -58 9 -75 12 -16
2 -46 6 -65 8 -19 2 -99 13 -177 24 -78 12 -158 24 -179 27 -20 2 -49 6 -63 9
-14 2 -48 7 -76 11 -27 3 -59 7 -70 9 -60 8 -123 17 -145 21 -72 13 -118 14
-127 2z"/>
<path d="M4905 2999 c-22 -4 -62 -10 -90 -14 -57 -7 -99 -13 -135 -20 -14 -2
-50 -7 -80 -10 -30 -3 -62 -8 -70 -10 -8 -2 -35 -7 -60 -9 -71 -9 -123 -16
-146 -20 -12 -2 -45 -7 -75 -11 -30 -3 -79 -10 -109 -15 -30 -4 -62 -8 -70 -9
-8 0 -31 -2 -50 -6 -19 -3 -50 -8 -67 -11 -29 -4 -60 -34 -48 -45 15 -15 21
-372 9 -524 -12 -156 -11 -160 41 -169 95 -16 175 -28 215 -32 25 -2 54 -6 66
-9 11 -2 43 -7 70 -10 51 -6 92 -12 134 -20 14 -2 48 -7 75 -10 28 -3 75 -9
105 -14 30 -6 78 -12 105 -15 28 -3 61 -8 75 -11 14 -3 48 -8 75 -11 28 -3 67
-9 88 -14 54 -12 75 9 81 80 27 332 27 561 1 866 -2 23 -8 52 -15 63 -12 23
-39 25 -125 10z"/>
<path d="M1135 1380 c-121 -54 -240 -108 -265 -119 -25 -11 -126 -56 -225
-100 -99 -45 -186 -81 -192 -81 -7 0 -13 -4 -13 -10 0 -5 -6 -10 -13 -10 -8 0
-29 -7 -46 -16 -29 -14 -32 -20 -28 -48 3 -17 12 -51 22 -76 22 -60 195 -409
240 -485 19 -33 40 -70 47 -83 6 -12 15 -22 20 -22 4 0 8 -5 8 -10 0 -6 25
-48 57 -95 41 -62 62 -85 77 -85 22 1 28 4 97 62 24 20 100 83 169 139 69 56
139 114 155 128 17 14 51 42 75 61 44 35 110 90 120 100 3 3 39 32 80 65 41
33 80 65 86 70 6 6 32 27 58 49 26 21 46 47 46 57 0 11 -22 52 -48 92 -27 40
-51 79 -55 87 -4 8 -18 33 -31 55 -32 51 -118 224 -147 295 -22 54 -43 81 -63
79 -6 0 -110 -45 -231 -99z"/>
<path d="M3705 1384 c-8 -20 -15 -38 -15 -41 0 -2 -31 -66 -68 -141 -68 -135
-168 -308 -202 -347 -10 -11 -16 -29 -14 -40 3 -23 27 -45 199 -185 44 -35 82
-67 85 -70 3 -3 41 -35 85 -70 44 -35 82 -67 85 -70 5 -5 87 -73 133 -110 11
-8 24 -20 31 -25 6 -6 36 -30 66 -55 71 -59 100 -83 114 -95 35 -32 71 -55 87
-55 12 0 41 34 86 103 88 133 92 139 100 157 4 8 9 17 12 20 33 29 281 545
281 584 0 24 -37 43 -335 176 -165 73 -384 171 -487 217 -103 45 -197 83 -208
83 -13 0 -25 -12 -35 -36z"/>
</g>
</svg>
